<?xml version="1.0" encoding="UTF-8" standalone="no"?>
<svg width="344px" height="344px" viewBox="0 0 344 344" version="1.1" xmlns="http://www.w3.org/2000/svg" xmlns:xlink="http://www.w3.org/1999/xlink">
    <!-- Generator: Sketch 39.1 (31720) - http://www.bohemiancoding.com/sketch -->
    <title>clojure-berlin</title>
    <desc>Created with Sketch.</desc>
    <defs></defs>
    <g id="Page-1" stroke="none" stroke-width="1" fill="none" fill-rule="evenodd">
        <g id="Artboard-1" transform="translate(-205.000000, -94.000000)">
            <g id="clojure-berlin" transform="translate(205.000000, 94.000000)">
                <circle id="background" fill="#FFFFFF" cx="172" cy="172" r="172"></circle>
                <path d="M178.334991,111.203283 L177.593496,89.6094481 C221.223154,91.8797142 255.902439,128.059477 255.902439,172.358368 C255.902439,214.721511 224.187726,249.659593 183.25959,254.617578 L183.25959,254.617578 L179.698156,150.901402 C187.683289,147.975588 193.383057,140.292782 193.383057,131.275544 C193.383057,121.753062 187.026669,113.718741 178.334991,111.203283 L178.334991,111.203283 Z" id="Path" fill="#90B4FE"></path>
                <path d="M185.632856,330.019886 C266.495684,323.234945 330.01626,255.200165 330.01626,172.2721 C330.01626,85.673226 260.747749,15.3153213 174.796748,13.9873656 L176.815989,72.8780433 C230.163715,74.8817618 272.799412,118.928893 272.799412,172.97256 C272.799412,224.682956 233.765732,267.241361 183.66319,272.575027 L185.632856,330.019886 L185.632856,330.019886 L185.632856,330.019886 Z" id="Path" fill="#5881D8"></path>
                <path d="M170.601626,13.9873656 C84.0045931,14.5699777 13.9837398,85.1919281 13.9837398,172.224456 C13.9837398,255.594444 78.2353003,323.905987 159.761035,330.019886 L161.734523,272.487386 C111.631241,267.155846 72.5969856,224.614412 72.5969856,172.924636 C72.5969856,118.902521 115.233312,74.8729538 168.581825,72.8700343 L170.601626,13.9873656 L170.601626,13.9873656 L170.601626,13.9873656 Z" id="Path" fill="#63B132"></path>
                <path d="M165.684783,151.350904 L162.138784,254.617578 C121.210648,249.659593 89.495935,214.721511 89.495935,172.358368 C89.495935,128.059477 124.17522,91.8797142 167.804878,89.6094481 L167.804878,89.6094481 L167.075502,110.850351 C157.674208,112.871057 150.625997,121.248235 150.625997,131.275544 C150.625997,140.80194 156.987612,148.838952 165.684783,151.350904 L165.684783,151.350904 Z" id="Path" fill="#91DC47"></path>
            </g>
        </g>
    </g>
</svg>